<svg width="355" height="48" viewBox="0 0 355 48" fill="none" xmlns="http://www.w3.org/2000/svg">
<g clip-path="url(#clip0_3022_476)">
<path d="M126.179 1.13184H7.44401C3.58952 1.13184 0.464844 4.25652 0.464844 8.111V37.8888C0.464844 41.7433 3.58952 44.8679 7.44401 44.8679H126.179C130.034 44.8679 133.158 41.7433 133.158 37.8888V8.111C133.158 4.25652 130.034 1.13184 126.179 1.13184Z" fill="#050038"/>
<path d="M27.6593 23.3359C27.6713 22.4039 27.9189 21.49 28.379 20.6794C28.8391 19.8687 29.4968 19.1876 30.2908 18.6994C29.7864 17.979 29.1209 17.3861 28.3473 16.9679C27.5736 16.5497 26.713 16.3176 25.834 16.29C23.9589 16.0932 22.141 17.4121 21.1854 17.4121C20.2114 17.4121 18.7402 16.3096 17.156 16.3422C16.1312 16.3753 15.1325 16.6732 14.2573 17.2071C13.3819 17.741 12.6598 18.4924 12.1613 19.3883C10.0017 23.1273 11.6125 28.6225 13.6813 31.6449C14.7163 33.1248 15.9259 34.778 17.5087 34.7194C19.0576 34.6551 19.6362 33.7317 21.5057 33.7317C23.358 33.7317 23.9007 34.7194 25.5157 34.6821C27.1777 34.6551 28.2248 33.1955 29.2236 31.7015C29.9673 30.647 30.5395 29.4816 30.9191 28.2482C29.9535 27.8399 29.1295 27.1563 28.5499 26.2827C27.9702 25.4092 27.6604 24.3843 27.6593 23.3359Z" fill="white"/>
<path d="M24.6087 14.3021C25.5149 13.2142 25.9614 11.8159 25.8532 10.4043C24.4688 10.5496 23.1899 11.2114 22.2714 12.2575C21.8224 12.7686 21.4785 13.3631 21.2594 14.0071C21.0402 14.6512 20.9501 15.3321 20.9943 16.011C21.6868 16.0182 22.3718 15.8681 22.9979 15.572C23.624 15.276 24.1748 14.8418 24.6087 14.3021Z" fill="white"/>
<path d="M47.239 30.9728H41.9534L40.684 34.7208H38.4453L43.4517 20.854H45.7777L50.7842 34.7208H48.5072L47.239 30.9728ZM42.5008 29.2432H46.6905L44.6251 23.1605H44.5673L42.5008 29.2432Z" fill="white"/>
<path d="M61.5965 29.6661C61.5965 32.8079 59.9149 34.8263 57.3774 34.8263C56.7346 34.8599 56.0953 34.7119 55.5328 34.3991C54.9702 34.0863 54.5071 33.6213 54.1965 33.0575H54.1485V38.065H52.0732V24.6106H54.0819V26.2921H54.1201C54.445 25.7311 54.9159 25.2686 55.4828 24.9538C56.0497 24.6391 56.6912 24.4839 57.3393 24.5048C59.9051 24.5048 61.5965 26.5331 61.5965 29.6661ZM59.4635 29.6661C59.4635 27.6193 58.4058 26.2736 56.7918 26.2736C55.2062 26.2736 54.1397 27.6476 54.1397 29.6661C54.1397 31.7032 55.2062 33.0674 56.7918 33.0674C58.4058 33.0674 59.4635 31.7315 59.4635 29.6661Z" fill="white"/>
<path d="M72.7245 29.6661C72.7245 32.8079 71.0429 34.8263 68.5053 34.8263C67.8625 34.8599 67.2232 34.7119 66.6607 34.399C66.0981 34.0863 65.6349 33.6213 65.3243 33.0575H65.2763V38.065H63.2012V24.6106H65.2098V26.2921H65.248C65.5729 25.7311 66.0438 25.2685 66.6106 24.9538C67.1775 24.6391 67.8191 24.4839 68.4671 24.5048C71.0331 24.5048 72.7245 26.5331 72.7245 29.6661ZM70.5915 29.6661C70.5915 27.6193 69.5336 26.2736 67.9197 26.2736C66.3342 26.2736 65.2677 27.6476 65.2677 29.6661C65.2677 31.7032 66.3342 33.0674 67.9197 33.0674C69.5337 33.0674 70.5915 31.7315 70.5915 29.6661Z" fill="white"/>
<path d="M80.0784 30.8574C80.2322 32.2325 81.568 33.1354 83.3935 33.1354C85.1426 33.1354 86.401 32.2325 86.401 30.9926C86.401 29.9162 85.6421 29.2718 83.845 28.8301L82.0478 28.3972C79.5015 27.7822 78.3194 26.5914 78.3194 24.659C78.3194 22.2664 80.4044 20.623 83.3651 20.623C86.2952 20.623 88.3039 22.2664 88.3716 24.659H86.2767C86.1514 23.2751 85.0074 22.4399 83.3357 22.4399C81.664 22.4399 80.52 23.285 80.52 24.5151C80.52 25.4954 81.2507 26.0723 83.038 26.5138L84.5657 26.889C87.4108 27.5618 88.593 28.7047 88.593 30.733C88.593 33.3273 86.5265 34.9521 83.2397 34.9521C80.1645 34.9521 78.0882 33.3654 77.9541 30.8573L80.0784 30.8574Z" fill="white"/>
<path d="M93.072 22.2183V24.6108H94.9945V26.2542H93.072V31.8276C93.072 32.6935 93.4563 33.097 94.3012 33.097C94.5301 33.093 94.7581 33.077 94.9843 33.049V34.6826C94.6046 34.7536 94.2184 34.7857 93.8313 34.7785C91.7848 34.7785 90.9865 34.0097 90.9865 32.049V26.2542H89.5166V24.6108H90.9865V22.2183H93.072Z" fill="white"/>
<path d="M96.1064 29.6662C96.1064 26.4853 97.9806 24.4863 100.902 24.4863C103.833 24.4863 105.698 26.4852 105.698 29.6662C105.698 32.8558 103.843 34.846 100.902 34.846C97.962 34.846 96.1064 32.8558 96.1064 29.6662ZM103.583 29.6662C103.583 27.4841 102.583 26.1962 100.902 26.1962C99.2201 26.1962 98.2216 27.4939 98.2216 29.6662C98.2216 31.857 99.2201 33.135 100.902 33.135C102.583 33.135 103.583 31.857 103.583 29.6662Z" fill="white"/>
<path d="M107.408 24.611H109.387V26.3317H109.435C109.569 25.7943 109.884 25.3193 110.327 24.9867C110.769 24.6541 111.314 24.4841 111.867 24.5052C112.107 24.5043 112.345 24.5303 112.578 24.5826V26.5236C112.276 26.4314 111.961 26.389 111.646 26.3982C111.344 26.386 111.044 26.4391 110.765 26.5541C110.486 26.6689 110.235 26.8428 110.03 27.0638C109.824 27.2848 109.669 27.5476 109.575 27.8342C109.481 28.1208 109.449 28.4245 109.483 28.7242V34.7209H107.408V24.611Z" fill="white"/>
<path d="M122.148 31.7512C121.869 33.5865 120.082 34.846 117.795 34.846C114.854 34.846 113.028 32.8755 113.028 29.7142C113.028 26.543 114.863 24.4863 117.707 24.4863C120.504 24.4863 122.263 26.4077 122.263 29.4732V30.1841H115.123V30.3096C115.09 30.6816 115.137 31.0564 115.26 31.4091C115.383 31.7619 115.579 32.0843 115.837 32.3551C116.094 32.626 116.406 32.839 116.751 32.9801C117.098 33.121 117.47 33.1869 117.843 33.1732C118.333 33.2191 118.826 33.1056 119.246 32.8493C119.667 32.5931 119.994 32.208 120.178 31.7512H122.148ZM115.133 28.7338H120.187C120.206 28.3992 120.155 28.0645 120.038 27.7504C119.922 27.4365 119.741 27.1499 119.508 26.909C119.275 26.6681 118.995 26.4779 118.685 26.3503C118.375 26.2228 118.042 26.1607 117.707 26.1678C117.369 26.1659 117.034 26.2307 116.722 26.3589C116.409 26.487 116.125 26.6758 115.885 26.9144C115.646 27.1529 115.456 27.4366 115.327 27.7489C115.198 28.0611 115.132 28.3959 115.133 28.7338V28.7338Z" fill="white"/>
<path d="M42.2408 10.4162C42.6758 10.3851 43.1123 10.4508 43.519 10.6087C43.9255 10.7666 44.292 11.0128 44.5919 11.3296C44.8918 11.6462 45.1178 12.0255 45.2534 12.4402C45.3888 12.8548 45.4307 13.2943 45.3759 13.727C45.3759 15.8556 44.2255 17.0792 42.2408 17.0792H39.834V10.4162H42.2408ZM40.8689 16.1369H42.1251C42.436 16.1555 42.7472 16.1045 43.0358 15.9877C43.3245 15.8709 43.5836 15.6912 43.7941 15.4616C44.0045 15.232 44.1612 14.9585 44.2525 14.6608C44.344 14.363 44.3678 14.0487 44.3224 13.7406C44.3646 13.4337 44.3382 13.1213 44.2455 12.8257C44.1527 12.5302 43.9956 12.2588 43.7856 12.0311C43.5757 11.8034 43.3178 11.6249 43.0307 11.5085C42.7436 11.3921 42.4344 11.3406 42.1251 11.3579H40.8689V16.1369Z" fill="white"/>
<path d="M46.5444 14.5631C46.5128 14.2327 46.5507 13.8992 46.6554 13.5842C46.7602 13.2693 46.9297 12.9797 47.1529 12.7341C47.3761 12.4884 47.6483 12.2922 47.9519 12.1578C48.2554 12.0235 48.5837 11.9541 48.9157 11.9541C49.2477 11.9541 49.576 12.0235 49.8795 12.1578C50.1831 12.2922 50.4552 12.4884 50.6785 12.7341C50.9017 12.9797 51.0712 13.2693 51.176 13.5842C51.2808 13.8992 51.3186 14.2327 51.287 14.5631C51.3192 14.8938 51.2819 15.2277 51.1773 15.5433C51.0728 15.8587 50.9034 16.1489 50.6801 16.395C50.4568 16.6411 50.1845 16.8378 49.8806 16.9724C49.5767 17.107 49.2481 17.1765 48.9157 17.1765C48.5834 17.1765 48.2547 17.107 47.9509 16.9724C47.6469 16.8378 47.3746 16.6411 47.1512 16.395C46.928 16.1489 46.7586 15.8587 46.654 15.5433C46.5495 15.2277 46.5122 14.8938 46.5444 14.5631ZM50.2663 14.5631C50.2663 13.4731 49.7766 12.8357 48.9173 12.8357C48.0548 12.8357 47.5695 13.4731 47.5695 14.5631C47.5695 15.6618 48.0548 16.2942 48.9173 16.2942C49.7767 16.2942 50.2663 15.6574 50.2663 14.5631Z" fill="white"/>
<path d="M57.5915 17.079H56.5621L55.5229 13.3757H55.4444L54.4095 17.079H53.3899L52.0039 12.0508H53.0104L53.9112 15.8876H53.9853L55.0191 12.0508H55.971L57.0049 15.8876H57.0833L57.9797 12.0508H58.9721L57.5915 17.079Z" fill="white"/>
<path d="M60.1367 12.0512H61.092V12.85H61.1662C61.2919 12.5631 61.5041 12.3226 61.7731 12.1621C62.042 12.0014 62.3544 11.9288 62.6666 11.9542C62.9114 11.9358 63.157 11.9727 63.3855 12.0621C63.6139 12.1515 63.8193 12.2912 63.9865 12.4708C64.1536 12.6504 64.2783 12.8654 64.351 13.0997C64.4239 13.334 64.443 13.5816 64.407 13.8243V17.0794H63.4147V14.0735C63.4147 13.2655 63.0636 12.8636 62.3297 12.8636C62.1636 12.8559 61.9977 12.8842 61.8436 12.9465C61.6894 13.0089 61.5506 13.1038 61.4365 13.2249C61.3225 13.3458 61.236 13.4902 61.1829 13.6477C61.1298 13.8053 61.1115 13.9726 61.1291 14.1379V17.0795H60.1367V12.0512Z" fill="white"/>
<path d="M65.9893 10.0879H66.9816V17.0791H65.9893V10.0879Z" fill="white"/>
<path d="M68.3618 14.5632C68.3302 14.2328 68.368 13.8993 68.4728 13.5843C68.5777 13.2693 68.7471 12.9798 68.9705 12.7341C69.1937 12.4884 69.4659 12.2922 69.7694 12.1578C70.0731 12.0235 70.4014 11.9541 70.7333 11.9541C71.0653 11.9541 71.3936 12.0235 71.6972 12.1578C72.0008 12.2922 72.2729 12.4884 72.4962 12.7341C72.7195 12.9798 72.889 13.2693 72.9938 13.5843C73.0986 13.8993 73.1365 14.2328 73.1048 14.5632C73.137 14.894 73.0996 15.2278 72.9951 15.5433C72.8906 15.8588 72.7212 16.149 72.4978 16.3951C72.2745 16.6412 72.0021 16.8378 71.6982 16.9724C71.3944 17.1071 71.0657 17.1766 70.7333 17.1766C70.401 17.1766 70.0723 17.1071 69.7684 16.9724C69.4645 16.8378 69.1921 16.6412 68.9688 16.3951C68.7455 16.149 68.5761 15.8588 68.4715 15.5433C68.367 15.2278 68.3296 14.894 68.3618 14.5632ZM72.0836 14.5632C72.0836 13.4732 71.594 12.8358 70.7347 12.8358C69.8721 12.8358 69.3869 13.4732 69.3869 14.5632C69.3869 15.6619 69.8722 16.2943 70.7347 16.2943C71.594 16.2943 72.0836 15.6575 72.0836 14.5632Z" fill="white"/>
<path d="M74.1484 15.6574C74.1484 14.7523 74.8224 14.2305 76.0187 14.1564L77.3807 14.0779V13.6438C77.3807 13.1127 77.0295 12.8129 76.3512 12.8129C75.7973 12.8129 75.4134 13.0162 75.3033 13.3718H74.3425C74.444 12.5081 75.2564 11.9541 76.397 11.9541C77.6577 11.9541 78.3687 12.5817 78.3687 13.6438V17.0794H77.4134V16.3728H77.3348C77.1755 16.6262 76.9517 16.8329 76.6864 16.9717C76.421 17.1103 76.1236 17.1761 75.8246 17.1623C75.6135 17.1843 75.4001 17.1618 75.1983 17.0962C74.9964 17.0307 74.8105 16.9235 74.6526 16.7817C74.4947 16.6399 74.3682 16.4666 74.2814 16.273C74.1946 16.0793 74.1493 15.8697 74.1484 15.6574ZM77.3807 15.2278V14.8074L76.1528 14.8859C75.4603 14.9323 75.1463 15.1678 75.1463 15.6111C75.1463 16.0636 75.5389 16.327 76.0787 16.327C76.2369 16.343 76.3967 16.3271 76.5485 16.2801C76.7004 16.2331 76.8413 16.1559 76.9627 16.0534C77.0842 15.9508 77.1838 15.8249 77.2556 15.683C77.3274 15.5412 77.3699 15.3864 77.3807 15.2278Z" fill="white"/>
<path d="M79.6729 14.5627C79.6729 12.9739 80.4897 11.9673 81.7601 11.9673C82.0743 11.9529 82.3863 12.0282 82.6593 12.1843C82.9323 12.3406 83.1553 12.5713 83.302 12.8495H83.3762V10.0879H84.3685V17.0791H83.4177V16.2846H83.3391C83.181 16.5609 82.9503 16.7888 82.6719 16.9435C82.3936 17.098 82.0782 17.1736 81.7601 17.1619C80.4809 17.162 79.6729 16.1554 79.6729 14.5627ZM80.698 14.5627C80.698 15.6293 81.2007 16.271 82.0415 16.271C82.8779 16.271 83.3948 15.6199 83.3948 14.5671C83.3948 13.5191 82.8725 12.8589 82.0415 12.8589C81.2061 12.8589 80.698 13.505 80.698 14.5627Z" fill="white"/>
<path d="M88.4741 14.5631C88.4425 14.2327 88.4803 13.8992 88.5851 13.5842C88.6899 13.2693 88.8594 12.9797 89.0826 12.7341C89.3058 12.4884 89.578 12.2922 89.8816 12.1578C90.1851 12.0235 90.5134 11.9541 90.8453 11.9541C91.1774 11.9541 91.5056 12.0235 91.8092 12.1578C92.1128 12.2922 92.3849 12.4884 92.6082 12.7341C92.8314 12.9797 93.0009 13.2693 93.1059 13.5842C93.2102 13.8992 93.2483 14.2327 93.2167 14.5631C93.2492 14.8938 93.2111 15.2277 93.1069 15.5433C93.0025 15.8587 92.8331 16.1489 92.6098 16.395C92.3864 16.6411 92.1142 16.8378 91.8102 16.9724C91.5064 17.107 91.1777 17.1765 90.8453 17.1765C90.513 17.1765 90.1844 17.107 89.8805 16.9724C89.5766 16.8378 89.3043 16.6411 89.0809 16.395C88.8576 16.1489 88.6882 15.8587 88.5837 15.5433C88.4792 15.2277 88.4419 14.8938 88.4741 14.5631ZM92.196 14.5631C92.196 13.4731 91.7063 12.8357 90.847 12.8357C89.9845 12.8357 89.4992 13.4731 89.4992 14.5631C89.4992 15.6618 89.9845 16.2942 90.847 16.2942C91.7063 16.2942 92.196 15.6574 92.196 14.5631Z" fill="white"/>
<path d="M94.5488 12.0512H95.5045V12.85H95.5789C95.7046 12.5631 95.9167 12.3226 96.1857 12.1621C96.4546 12.0014 96.7673 11.9288 97.079 11.9542C97.3237 11.9358 97.5694 11.9727 97.7983 12.0621C98.0263 12.1515 98.232 12.2912 98.3995 12.4708C98.566 12.6504 98.6907 12.8654 98.7633 13.0997C98.8368 13.334 98.8554 13.5816 98.8201 13.8243V17.0794H97.8272V14.0735C97.8272 13.2655 97.4764 12.8636 96.7421 12.8636C96.5765 12.8559 96.4099 12.8842 96.2564 12.9465C96.1019 13.0089 95.9633 13.1038 95.8488 13.2249C95.7353 13.3458 95.6487 13.4902 95.5957 13.6477C95.5427 13.8053 95.524 13.9726 95.5417 14.1379V17.0795H94.5488V12.0512Z" fill="white"/>
<path d="M104.427 10.7988V12.0737H105.517V12.9095H104.427V15.4951C104.427 16.0218 104.645 16.2524 105.138 16.2524C105.265 16.252 105.391 16.2443 105.517 16.2296V17.0561C105.339 17.088 105.158 17.1049 104.977 17.1068C103.873 17.1068 103.434 16.7186 103.434 15.7492V12.9095H102.636V12.0736H103.434V10.7988H104.427Z" fill="white"/>
<path d="M106.872 10.0879H107.856V12.8588H107.934C108.066 12.5693 108.284 12.3274 108.558 12.1662C108.833 12.005 109.15 11.9323 109.467 11.9581C109.71 11.9448 109.954 11.9855 110.179 12.0771C110.405 12.1687 110.608 12.309 110.774 12.4881C110.94 12.6671 111.063 12.8805 111.137 13.1129C111.21 13.3453 111.231 13.5911 111.199 13.8326V17.0791H110.205V14.0775C110.205 13.2743 109.831 12.8676 109.131 12.8676C108.959 12.8536 108.788 12.877 108.627 12.9362C108.467 12.9955 108.321 13.0891 108.201 13.2106C108.08 13.332 107.988 13.4783 107.929 13.6392C107.871 13.8002 107.849 13.9718 107.864 14.1423V17.0791H106.872V10.0879Z" fill="white"/>
<path d="M116.984 15.7218C116.849 16.1814 116.556 16.579 116.158 16.8448C115.76 17.1108 115.281 17.2282 114.805 17.1766C114.474 17.1853 114.144 17.1218 113.84 16.9906C113.536 16.8594 113.263 16.6635 113.043 16.4166C112.821 16.1696 112.657 15.8776 112.561 15.5606C112.464 15.2437 112.437 14.9094 112.483 14.5812C112.438 14.2519 112.465 13.917 112.562 13.5991C112.658 13.2812 112.822 12.9878 113.042 12.7387C113.261 12.4896 113.532 12.2907 113.836 12.1553C114.139 12.02 114.468 11.9514 114.801 11.9542C116.199 11.9542 117.043 12.9101 117.043 14.489V14.8353H113.493V14.8909C113.477 15.0755 113.501 15.2612 113.561 15.4362C113.622 15.6113 113.718 15.7717 113.844 15.9074C113.97 16.043 114.123 16.1507 114.293 16.2238C114.464 16.2968 114.647 16.3335 114.832 16.3314C115.069 16.3599 115.31 16.3172 115.523 16.2086C115.736 16.1001 115.912 15.9306 116.028 15.7218H116.984ZM113.493 14.1013H116.033C116.046 13.9326 116.022 13.7631 115.966 13.6038C115.909 13.4444 115.819 13.2987 115.702 13.176C115.586 13.0534 115.444 12.9564 115.288 12.8914C115.133 12.8265 114.964 12.7949 114.795 12.7988C114.624 12.7966 114.453 12.8289 114.294 12.8936C114.135 12.9583 113.991 13.0542 113.869 13.1755C113.748 13.297 113.652 13.4414 113.587 13.6004C113.523 13.7595 113.49 13.9298 113.493 14.1013Z" fill="white"/>
<path d="M126.179 1.13184H7.44401C3.58952 1.13184 0.464844 4.25652 0.464844 8.111V37.8888C0.464844 41.7433 3.58952 44.8679 7.44401 44.8679H126.179C130.034 44.8679 133.158 41.7433 133.158 37.8888V8.111C133.158 4.25652 130.034 1.13184 126.179 1.13184Z" stroke="#A6A6A6" stroke-width="0.930556"/>
</g>
<g clip-path="url(#clip1_3022_476)">
<path d="M290.165 1.08594H154.017C150.155 1.08594 147.023 4.2172 147.023 8.0798V37.9203C147.023 41.7829 150.155 44.9142 154.017 44.9142H290.165C294.027 44.9142 297.158 41.7829 297.158 37.9203V8.0798C297.158 4.2172 294.027 1.08594 290.165 1.08594Z" fill="#050038"/>
<path d="M199.618 12.082C199.618 13.0196 199.341 13.7662 198.785 14.3232C198.153 14.9853 197.33 15.3167 196.318 15.3167C195.349 15.3167 194.525 14.981 193.848 14.3087C193.169 13.6368 192.83 12.8037 192.83 11.8097C192.83 10.8152 193.169 9.98258 193.848 9.31026C194.525 8.6384 195.349 8.30225 196.318 8.30225C196.799 8.30225 197.259 8.39624 197.696 8.58379C198.133 8.77179 198.484 9.02133 198.746 9.33387L198.156 9.92438C197.712 9.39329 197.1 9.12797 196.318 9.12797C195.611 9.12797 195 9.37628 194.484 9.87324C193.969 10.3708 193.711 11.0159 193.711 11.8097C193.711 12.6035 193.969 13.2486 194.484 13.7461C195 14.2432 195.611 14.4914 196.318 14.4914C197.068 14.4914 197.693 14.2418 198.193 13.7418C198.518 13.416 198.706 12.9633 198.756 12.3819H196.318V11.5754H199.572C199.603 11.7507 199.618 11.919 199.618 12.082Z" fill="white"/>
<path d="M199.619 12.0821H199.507C199.506 12.9983 199.239 13.7098 198.706 14.2441L198.705 14.245L198.705 14.2459C198.093 14.8853 197.307 15.2035 196.319 15.2048C195.375 15.2035 194.586 14.8818 193.927 14.2296C193.269 13.5761 192.944 12.7784 192.943 11.8097C192.944 10.8407 193.269 10.0434 193.927 9.39036C194.586 8.73774 195.375 8.41558 196.319 8.41423C196.785 8.41423 197.229 8.50521 197.653 8.6866C198.077 8.86934 198.412 9.10881 198.661 9.40613L198.747 9.33396L198.668 9.25484L198.078 9.8458L198.157 9.92446L198.243 9.85284C197.778 9.29546 197.125 9.01448 196.319 9.01616C195.586 9.01526 194.941 9.27711 194.408 9.79298C193.869 10.3105 193.599 10.9919 193.6 11.8097C193.599 12.6277 193.869 13.309 194.408 13.8266C194.941 14.3425 195.586 14.6043 196.319 14.6034C197.093 14.6048 197.753 14.342 198.273 13.821C198.62 13.473 198.817 12.9909 198.869 12.3915L198.879 12.27H196.431V11.6874H199.572V11.5755L199.462 11.5952C199.493 11.7648 199.507 11.926 199.507 12.0821H199.619H199.731C199.731 11.912 199.715 11.7373 199.682 11.5554L199.666 11.4636H196.207V12.3819V12.4938H198.757V12.3819L198.646 12.3723C198.596 12.9354 198.417 13.3594 198.115 13.6627C197.634 14.1418 197.044 14.3783 196.319 14.3796C195.638 14.3787 195.061 14.1444 194.563 13.6658C194.07 13.1888 193.825 12.58 193.823 11.8097C193.825 11.0396 194.07 10.4307 194.563 9.95376C195.061 9.47518 195.638 9.24085 196.319 9.23996C197.075 9.24175 197.647 9.49174 198.071 9.99666L198.15 10.0902L198.826 9.41307L198.899 9.34056L198.833 9.26223C198.558 8.93447 198.191 8.67429 197.741 8.48115C197.29 8.28745 196.814 8.19043 196.319 8.19043C195.324 8.18954 194.465 8.53923 193.769 9.23123C193.07 9.92189 192.718 10.79 192.719 11.8097C192.718 12.8291 193.07 13.6977 193.77 14.3888C194.465 15.0804 195.324 15.4296 196.319 15.4287C197.355 15.4296 198.214 15.0855 198.866 14.4006L198.785 14.3232L198.864 14.4023C199.444 13.8231 199.732 13.0407 199.731 12.0821H199.619Z" fill="white"/>
<path d="M204.778 9.27747H201.72V11.4063H204.478V12.2131H201.72V14.342H204.778V15.1668H200.858V8.45264H204.778V9.27747Z" fill="white"/>
<path d="M204.777 9.27755V9.16565H201.607V11.5183H204.364V12.1009L201.607 12.1013V14.454H204.665V15.055H200.969V8.56462H204.665V9.27755H204.777V9.16565V9.27755H204.889V8.45272V8.34082H200.745V15.2788H204.889V14.3421V14.2301H201.831V12.3251H204.588V11.4064V11.2945H201.831V9.38945H204.889V9.27755H204.777Z" fill="white"/>
<path d="M208.416 15.1668H207.553V9.27747H205.678V8.45264H210.292V9.27747H208.416V15.1668Z" fill="white"/>
<path d="M208.415 15.1669V15.055H207.664V9.16565H205.788V8.56462H210.178V9.16565H208.303V15.1669H208.415V15.055V15.1669H208.527V9.38945H210.402V8.45272V8.34082H205.564V9.27755V9.38945H207.44V15.2788H208.415H208.527V15.1669H208.415Z" fill="white"/>
<path d="M213.629 15.1668V8.45264H214.491V15.1668H213.629Z" fill="white"/>
<path d="M213.629 15.1669H213.74V8.56462H214.379V15.055H213.629V15.1669H213.74H213.629V15.2788H214.491H214.603V8.34082H213.629H213.517V15.2788H213.629V15.1669Z" fill="white"/>
<path d="M218.319 15.1668H217.455V9.27747H215.58V8.45264H220.194V9.27747H218.319V15.1668Z" fill="white"/>
<path d="M218.317 15.1669V15.055H217.566V9.16565H215.691V8.56462H220.081V9.16565H218.205V15.1669H218.317V15.055V15.1669H218.429V9.38945H220.304V8.45272V8.34082H215.467V9.27755V9.38945H217.342V15.2788H218.317H218.429V15.1669H218.317Z" fill="white"/>
<path d="M224.641 13.737C225.138 14.2401 225.746 14.4914 226.465 14.4914C227.184 14.4914 227.792 14.2401 228.288 13.737C228.786 13.2339 229.035 12.5907 229.035 11.8097C229.035 11.0286 228.786 10.3855 228.288 9.88241C227.792 9.3793 227.184 9.12797 226.465 9.12797C225.746 9.12797 225.138 9.3793 224.641 9.88241C224.144 10.3855 223.895 11.0286 223.895 11.8097C223.895 12.5907 224.144 13.2339 224.641 13.737ZM228.927 14.2991C228.266 14.9779 227.446 15.3167 226.465 15.3167C225.483 15.3167 224.662 14.9779 224.004 14.2991C223.343 13.6211 223.015 12.791 223.015 11.8097C223.015 10.8283 223.343 9.99825 224.004 9.32033C224.662 8.64142 225.483 8.30225 226.465 8.30225C227.44 8.30225 228.259 8.64321 228.922 9.32469C229.584 10.0062 229.916 10.8344 229.916 11.8097C229.916 12.791 229.585 13.6211 228.927 14.2991Z" fill="white"/>
<path d="M224.641 13.7371L224.562 13.8158C225.077 14.339 225.72 14.6048 226.465 14.6034C227.21 14.6048 227.854 14.339 228.369 13.8158C228.887 13.2921 229.148 12.6145 229.148 11.8097C229.148 11.0051 228.887 10.3275 228.369 9.80383C227.854 9.28058 227.21 9.01481 226.465 9.01616C225.72 9.01481 225.077 9.28058 224.562 9.80383C224.044 10.3275 223.783 11.0051 223.784 11.8097C223.783 12.6145 224.044 13.2921 224.562 13.8158L224.641 13.7371L224.721 13.6584C224.246 13.1753 224.009 12.5677 224.008 11.8097C224.009 11.0519 224.246 10.4443 224.721 9.96113C225.2 9.4782 225.772 9.2413 226.465 9.23996C227.158 9.2413 227.732 9.4782 228.209 9.96113C228.685 10.4443 228.922 11.0519 228.923 11.8097C228.922 12.5677 228.685 13.1753 228.209 13.6584C227.732 14.1414 227.158 14.3783 226.465 14.3796C225.772 14.3783 225.2 14.1414 224.721 13.6584L224.641 13.7371ZM228.927 14.2992L228.847 14.2214C228.206 14.8788 227.421 15.2035 226.465 15.2049C225.509 15.2035 224.725 14.8788 224.084 14.2214L224.081 14.2179L224.084 14.2214C223.444 13.5618 223.128 12.7662 223.127 11.8097C223.128 10.8534 223.444 10.0578 224.084 9.39819C224.725 8.74077 225.509 8.41558 226.465 8.41424C227.415 8.41558 228.198 8.74211 228.843 9.403C229.485 10.0657 229.803 10.86 229.804 11.8097C229.803 12.7662 229.486 13.5618 228.847 14.2214L228.927 14.2992L229.008 14.377C229.686 13.6802 230.029 12.816 230.028 11.8097C230.029 10.8093 229.685 9.94686 229.003 9.247C228.321 8.54448 227.467 8.1892 226.465 8.19043C225.458 8.1892 224.602 8.5428 223.924 9.24264V9.24219C223.244 9.93934 222.902 10.8036 222.903 11.8097C222.902 12.816 223.244 13.6802 223.924 14.3773L223.927 14.3805L223.924 14.377C224.602 15.0767 225.458 15.4296 226.465 15.4287C227.472 15.4296 228.329 15.0767 229.008 14.377L228.927 14.2992Z" fill="white"/>
<path d="M231.127 15.1668V8.45264H232.177L235.44 13.6758H235.477L235.44 12.3818V8.45264H236.303V15.1668H235.403L231.989 9.6905H231.952L231.989 10.9849V15.1668H231.127Z" fill="white"/>
<path d="M231.128 15.1669H231.239V8.56462H232.115L235.378 13.7878H235.478H235.593L235.552 12.3802V8.56462H236.192V15.055H235.465L232.052 9.57868H231.952H231.837L231.878 10.9868V15.055H231.128V15.1669H231.239H231.128V15.2788H231.989H232.101V10.9831L232.064 9.68756L231.952 9.69058V9.80248H231.989V9.69058L231.895 9.75011L235.341 15.2788H236.304H236.416V8.34082H235.441H235.329V12.3833L235.366 13.6788L235.478 13.6759V13.564H235.441V13.6759L235.535 13.6165L232.239 8.34082H231.128H231.016V15.2788H231.128V15.1669Z" fill="white"/>
<path d="M266.22 34.1901H268.308V20.201H266.22V34.1901ZM285.027 25.2402L282.634 31.3052H282.563L280.078 25.2402H277.828L281.554 33.7171L279.43 38.4323H281.609L287.349 25.2402H285.027ZM273.186 32.6012C272.501 32.6012 271.548 32.2593 271.548 31.4131C271.548 30.3334 272.736 29.9194 273.761 29.9194C274.68 29.9194 275.111 30.1174 275.67 30.3877C275.507 31.6833 274.391 32.6012 273.186 32.6012ZM273.438 24.9341C271.927 24.9341 270.361 25.6003 269.713 27.076L271.566 27.8497C271.962 27.076 272.7 26.8239 273.474 26.8239C274.553 26.8239 275.651 27.472 275.67 28.6239V28.7677C275.291 28.5517 274.482 28.2278 273.491 28.2278C271.494 28.2278 269.46 29.3254 269.46 31.3772C269.46 33.249 271.098 34.455 272.933 34.455C274.338 34.455 275.111 33.8251 275.598 33.0873H275.67V34.1669H277.685V28.8035C277.685 26.3203 275.832 24.9341 273.438 24.9341ZM260.533 26.9431H257.564V22.148H260.533C262.094 22.148 262.981 23.4405 262.981 24.5455C262.981 25.6296 262.094 26.9431 260.533 26.9431ZM260.48 20.201H255.476V34.1901H257.564V28.8901H260.48C262.793 28.8901 265.069 27.2146 265.069 24.5455C265.069 21.8765 262.793 20.201 260.48 20.201ZM233.197 32.6038C231.754 32.6038 230.547 31.396 230.547 29.7372C230.547 28.0609 231.754 26.8348 233.197 26.8348C234.621 26.8348 235.739 28.0609 235.739 29.7372C235.739 31.396 234.621 32.6038 233.197 32.6038ZM235.594 26.0235H235.522C235.054 25.4648 234.152 24.9599 233.016 24.9599C230.637 24.9599 228.455 27.0511 228.455 29.7372C228.455 32.4053 230.637 34.4786 233.016 34.4786C234.152 34.4786 235.054 33.9736 235.522 33.3972H235.594V34.0821C235.594 35.9032 234.621 36.8767 233.053 36.8767C231.773 36.8767 230.979 35.9569 230.655 35.1819L228.834 35.939C229.357 37.2009 230.745 38.7515 233.053 38.7515C235.504 38.7515 237.578 37.3089 237.578 33.7937V25.2485H235.594V26.0235ZM239.02 34.1901H241.111V20.2006H239.02V34.1901ZM244.194 29.5751C244.139 27.736 245.618 26.7989 246.681 26.7989C247.511 26.7989 248.214 27.2133 248.448 27.8087L244.194 29.5751ZM250.684 27.9888C250.288 26.9248 249.079 24.9599 246.61 24.9599C244.157 24.9599 242.121 26.8889 242.121 29.7193C242.121 32.3874 244.139 34.4786 246.844 34.4786C249.025 34.4786 250.288 33.1444 250.811 32.3694L249.188 31.2876C248.647 32.081 247.908 32.6038 246.844 32.6038C245.78 32.6038 245.023 32.1169 244.536 31.1617L250.899 28.5294L250.684 27.9888ZM199.983 26.4203V28.4393H204.814C204.67 29.5751 204.292 30.4042 203.715 30.9812C203.012 31.6845 201.912 32.4595 199.983 32.4595C197.008 32.4595 194.683 30.0619 194.683 27.0874C194.683 24.1128 197.008 21.7148 199.983 21.7148C201.588 21.7148 202.759 22.3459 203.625 23.1572L205.049 21.7332C203.841 20.5792 202.236 19.6958 199.983 19.6958C195.909 19.6958 192.483 23.013 192.483 27.0874C192.483 31.1617 195.909 34.4786 199.983 34.4786C202.183 34.4786 203.841 33.7579 205.139 32.4053C206.473 31.0713 206.888 29.1965 206.888 27.6823C206.888 27.2133 206.852 26.781 206.779 26.4203H199.983ZM212.38 32.6038C210.938 32.6038 209.694 31.4139 209.694 29.7193C209.694 28.0067 210.938 26.8348 212.38 26.8348C213.823 26.8348 215.066 28.0067 215.066 29.7193C215.066 31.4139 213.823 32.6038 212.38 32.6038ZM212.38 24.9599C209.748 24.9599 207.603 26.961 207.603 29.7193C207.603 32.4595 209.748 34.4786 212.38 34.4786C215.012 34.4786 217.158 32.4595 217.158 29.7193C217.158 26.961 215.012 24.9599 212.38 24.9599ZM222.802 32.6038C221.36 32.6038 220.116 31.4139 220.116 29.7193C220.116 28.0067 221.36 26.8348 222.802 26.8348C224.244 26.8348 225.488 28.0067 225.488 29.7193C225.488 31.4139 224.244 32.6038 222.802 32.6038ZM222.802 24.9599C220.17 24.9599 218.025 26.961 218.025 29.7193C218.025 32.4595 220.17 34.4786 222.802 34.4786C225.434 34.4786 227.579 32.4595 227.579 29.7193C227.579 26.961 225.434 24.9599 222.802 24.9599Z" fill="white"/>
<path d="M158.318 36.864L158.235 36.7844C157.909 36.4398 157.717 35.9049 157.717 35.2121V35.3751V10.6269C157.717 10.6246 157.717 10.623 157.717 10.6212C157.717 10.6233 157.717 10.6251 157.717 10.6274V10.7908C157.717 10.0407 157.941 9.47556 158.316 9.13672L172.181 23.0008L158.318 36.864ZM157.717 10.6199C157.717 10.5583 157.718 10.4984 157.722 10.4394C157.718 10.4979 157.717 10.5583 157.717 10.6199ZM157.722 10.4367C157.722 10.4359 157.722 10.435 157.722 10.4341C157.722 10.435 157.722 10.4359 157.722 10.4367ZM157.722 10.4288C157.722 10.4284 157.722 10.428 157.722 10.4275C157.722 10.428 157.722 10.4284 157.722 10.4288Z" fill="url(#paint0_linear_3022_476)"/>
<path d="M176.802 27.7879L176.908 27.728L182.383 24.6171C182.905 24.3202 183.253 23.9605 183.427 23.5798C183.253 23.9605 182.905 24.3207 182.383 24.6174L176.908 27.7285L176.802 27.7879ZM176.804 27.624L172.182 23.001L176.803 18.3789L182.383 21.5489C183.092 21.9516 183.489 22.4704 183.556 23.0006C183.556 23.001 183.556 23.0019 183.556 23.0027C183.489 23.5317 183.092 24.051 182.383 24.4535L176.804 27.624Z" fill="url(#paint1_linear_3022_476)"/>
<path d="M159.306 37.3921C158.918 37.3921 158.58 37.2662 158.317 37.0284L158.317 37.028C158.581 37.2658 158.919 37.3921 159.307 37.3921C159.34 37.3921 159.374 37.3912 159.409 37.3895C159.374 37.3912 159.339 37.3921 159.306 37.3921ZM159.306 37.2282C158.919 37.2286 158.581 37.1023 158.317 36.8645V36.8641L172.18 23.001L176.802 27.6238L160.56 36.8527C160.11 37.1075 159.684 37.2282 159.306 37.2282ZM158.313 37.0254C158.289 37.0032 158.265 36.9795 158.241 36.955L158.313 37.0254Z" fill="url(#paint2_linear_3022_476)"/>
<path d="M172.18 23.0012L158.315 9.13707C158.579 8.89973 158.917 8.77384 159.303 8.77384C159.683 8.77384 160.109 8.89492 160.559 9.15017L176.802 18.3791L172.18 23.0012ZM176.906 18.2746L160.559 8.98679C160.109 8.73143 159.683 8.61035 159.303 8.61035C159.302 8.61035 159.3 8.61035 159.298 8.61035C159.301 8.61035 159.302 8.61035 159.305 8.61035C159.684 8.61035 160.109 8.73098 160.559 8.98634L176.906 18.2746Z" fill="url(#paint3_linear_3022_476)"/>
<path d="M159.408 37.3893C159.76 37.3692 160.149 37.2481 160.559 37.016L176.8 27.7876L160.559 37.016C160.15 37.2485 159.76 37.3692 159.408 37.3893ZM158.316 37.0282L158.313 37.0252C158.314 37.0261 158.315 37.0273 158.316 37.0282ZM158.24 36.9548L158.233 36.9479V36.9474C158.236 36.95 158.238 36.9525 158.24 36.9548Z" fill="black"/>
<path d="M176.802 27.7879L176.907 27.728L176.802 27.7879Z" fill="url(#paint4_linear_3022_476)"/>
<path d="M159.306 37.3918C158.919 37.3918 158.58 37.2655 158.317 37.0277L158.316 37.0281C158.315 37.0272 158.314 37.026 158.313 37.0251L158.24 36.9548C158.238 36.9525 158.236 36.9499 158.233 36.9473L158.317 36.8642C158.58 37.102 158.918 37.2284 159.305 37.2279C159.684 37.2279 160.11 37.1072 160.559 36.8525L176.802 27.6235L176.906 27.7276L176.8 27.7875L160.559 37.0159C160.149 37.248 159.76 37.3691 159.408 37.3892C159.373 37.3909 159.339 37.3918 159.306 37.3918Z" fill="url(#paint5_linear_3022_476)"/>
<path d="M158.235 36.9478C157.909 36.6032 157.717 36.0682 157.717 35.3755V35.375C157.717 36.0682 157.909 36.6027 158.235 36.9473V36.9478Z" fill="black"/>
<path d="M158.235 36.9473C157.909 36.6028 157.717 36.0682 157.717 35.375V35.2119C157.717 35.9048 157.909 36.4398 158.235 36.7843L158.318 36.8639L158.235 36.9473Z" fill="url(#paint6_linear_3022_476)"/>
<path d="M158.233 36.9477L158.317 36.8643V36.8645L158.233 36.9477Z" fill="url(#paint7_linear_3022_476)"/>
<path d="M183.427 23.5793C183.513 23.3904 183.556 23.1964 183.556 23.0022C183.556 23.0019 183.556 23.0015 183.556 23.0015C183.556 23.1959 183.513 23.39 183.427 23.5793Z" fill="black"/>
<path d="M176.906 27.7277L176.802 27.6236L182.381 24.4532C183.09 24.0507 183.488 23.5314 183.554 23.0024C183.554 23.1966 183.511 23.3906 183.425 23.5795C183.251 23.9602 182.903 24.32 182.381 24.6167L176.906 27.7277Z" fill="url(#paint8_linear_3022_476)"/>
<path d="M183.555 23.001V23.0005C183.554 22.4152 183.163 21.8299 182.382 21.3858L176.907 18.2748H176.906L176.907 18.2744L182.382 21.3853C183.164 21.8294 183.556 22.4156 183.555 23.001Z" fill="#404040"/>
<path d="M183.554 23.0006C183.488 22.4704 183.09 21.9515 182.382 21.5489L176.802 18.379L176.906 18.2749H176.906L182.382 21.3859C183.163 21.83 183.554 22.4153 183.554 23.0006Z" fill="url(#paint9_linear_3022_476)"/>
<path d="M157.717 10.6216C157.717 10.6211 157.717 10.6206 157.717 10.6202C157.717 10.6206 157.717 10.6211 157.717 10.6216ZM157.722 10.4397C157.722 10.4388 157.722 10.438 157.722 10.437C157.722 10.438 157.722 10.4388 157.722 10.4397ZM157.722 10.4344C157.722 10.4326 157.722 10.431 157.722 10.4292C157.722 10.431 157.722 10.4326 157.722 10.4344ZM157.722 10.4279C157.787 9.27829 158.412 8.61427 159.296 8.61035C158.913 8.61259 158.579 8.73848 158.317 8.97403V8.97359L158.314 8.97672C158.287 9.00156 158.26 9.02786 158.235 9.05494C157.941 9.36569 157.756 9.8312 157.722 10.4279Z" fill="#404040"/>
<path d="M157.717 10.7907V10.6273C157.717 10.625 157.717 10.6233 157.717 10.6211C157.717 10.6206 157.717 10.6202 157.717 10.6198C157.717 10.5581 157.718 10.4978 157.722 10.4393C157.722 10.4383 157.722 10.4375 157.722 10.4366C157.722 10.4358 157.722 10.4349 157.722 10.4341C157.722 10.4322 157.722 10.4305 157.722 10.4287C157.722 10.4283 157.722 10.4279 157.722 10.4274C157.756 9.83076 157.941 9.36525 158.235 9.0545L158.316 9.13663C157.941 9.47547 157.717 10.0405 157.717 10.7907ZM158.314 8.97628L158.317 8.97314C158.316 8.97449 158.315 8.97538 158.314 8.97628Z" fill="url(#paint10_linear_3022_476)"/>
<path d="M176.801 18.379L160.559 9.15017C160.109 8.89492 159.683 8.77384 159.303 8.77384C158.916 8.77384 158.579 8.89973 158.315 9.13707L158.233 9.05494C158.259 9.02786 158.285 9.00156 158.313 8.97672C158.314 8.97582 158.315 8.97493 158.316 8.97403C158.577 8.73848 158.911 8.61259 159.295 8.61035C159.296 8.61035 159.297 8.61035 159.298 8.61035C159.3 8.61035 159.301 8.61035 159.303 8.61035C159.683 8.61035 160.109 8.73143 160.559 8.98679L176.906 18.2747L176.905 18.2749L176.801 18.379Z" fill="url(#paint11_linear_3022_476)"/>
<path d="M290.165 1.08594H154.017C150.155 1.08594 147.023 4.2172 147.023 8.0798V37.9203C147.023 41.7829 150.155 44.9142 154.017 44.9142H290.165C294.027 44.9142 297.158 41.7829 297.158 37.9203V8.0798C297.158 4.2172 294.027 1.08594 290.165 1.08594Z" stroke="#A6A6A6" stroke-width="0.932515"/>
</g>
<g clip-path="url(#clip2_3022_476)">
<path d="M345.25 0.5H319.75C314.365 0.5 310 4.86522 310 10.25V35.75C310 41.1348 314.365 45.5 319.75 45.5H345.25C350.635 45.5 355 41.1348 355 35.75V10.25C355 4.86522 350.635 0.5 345.25 0.5Z" fill="#FFD02F"/>
<path fill-rule="evenodd" clip-rule="evenodd" d="M341.258 6.125H336.319L340.434 13.3572L331.38 6.125H326.441L330.968 14.9643L321.502 6.125H316.562L321.502 17.375L316.562 39.875H321.502L330.968 15.7678L326.441 39.875H331.38L340.434 14.1607L336.319 39.875H341.258L350.312 11.75L341.258 6.125Z" fill="#050038"/>
</g>
<defs>
<linearGradient id="paint0_linear_3022_476" x1="170.952" y1="10.3659" x2="152.172" y2="29.1458" gradientUnits="userSpaceOnUse">
<stop stop-color="#00A0FF"/>
<stop offset="0.00657445" stop-color="#00A1FF"/>
<stop offset="0.2601" stop-color="#00BEFF"/>
<stop offset="0.5122" stop-color="#00D2FF"/>
<stop offset="0.7604" stop-color="#00DFFF"/>
<stop offset="1" stop-color="#00E3FF"/>
</linearGradient>
<linearGradient id="paint1_linear_3022_476" x1="184.419" y1="23.0018" x2="157.342" y2="23.0018" gradientUnits="userSpaceOnUse">
<stop stop-color="#FFE000"/>
<stop offset="0.4087" stop-color="#FFBD00"/>
<stop offset="0.7754" stop-color="#FFA500"/>
<stop offset="1" stop-color="#FF9C00"/>
</linearGradient>
<linearGradient id="paint2_linear_3022_476" x1="174.338" y1="25.5694" x2="148.872" y2="51.0364" gradientUnits="userSpaceOnUse">
<stop stop-color="#FF3A44"/>
<stop offset="1" stop-color="#C31162"/>
</linearGradient>
<linearGradient id="paint3_linear_3022_476" x1="154.722" y1="0.817059" x2="166.094" y2="12.1891" gradientUnits="userSpaceOnUse">
<stop stop-color="#32A071"/>
<stop offset="0.0685" stop-color="#2DA771"/>
<stop offset="0.4762" stop-color="#15CF74"/>
<stop offset="0.8009" stop-color="#06E775"/>
<stop offset="1" stop-color="#00F076"/>
</linearGradient>
<linearGradient id="paint4_linear_3022_476" x1="184.418" y1="23.0017" x2="157.342" y2="23.0017" gradientUnits="userSpaceOnUse">
<stop stop-color="#CCB300"/>
<stop offset="0.4087" stop-color="#CC9700"/>
<stop offset="0.7754" stop-color="#CC8400"/>
<stop offset="1" stop-color="#CC7D00"/>
</linearGradient>
<linearGradient id="paint5_linear_3022_476" x1="174.338" y1="25.5691" x2="148.871" y2="51.0361" gradientUnits="userSpaceOnUse">
<stop stop-color="#CC2E36"/>
<stop offset="1" stop-color="#9C0E4E"/>
</linearGradient>
<linearGradient id="paint6_linear_3022_476" x1="170.952" y1="10.3657" x2="152.172" y2="29.1456" gradientUnits="userSpaceOnUse">
<stop stop-color="#008DE0"/>
<stop offset="0.00657445" stop-color="#008DE0"/>
<stop offset="0.2601" stop-color="#00A7E0"/>
<stop offset="0.5122" stop-color="#00B8E0"/>
<stop offset="0.7604" stop-color="#00C4E0"/>
<stop offset="1" stop-color="#00C7E0"/>
</linearGradient>
<linearGradient id="paint7_linear_3022_476" x1="174.338" y1="25.5695" x2="148.871" y2="51.0369" gradientUnits="userSpaceOnUse">
<stop stop-color="#E0333C"/>
<stop offset="1" stop-color="#AB0F56"/>
</linearGradient>
<linearGradient id="paint8_linear_3022_476" x1="184.417" y1="23.0014" x2="157.34" y2="23.0014" gradientUnits="userSpaceOnUse">
<stop stop-color="#E0C500"/>
<stop offset="0.4087" stop-color="#E0A600"/>
<stop offset="0.7754" stop-color="#E09100"/>
<stop offset="1" stop-color="#E08900"/>
</linearGradient>
<linearGradient id="paint9_linear_3022_476" x1="184.418" y1="23.0017" x2="157.341" y2="23.0017" gradientUnits="userSpaceOnUse">
<stop stop-color="#FFE840"/>
<stop offset="0.4087" stop-color="#FFCE40"/>
<stop offset="0.7754" stop-color="#FFBC40"/>
<stop offset="1" stop-color="#FFB540"/>
</linearGradient>
<linearGradient id="paint10_linear_3022_476" x1="170.951" y1="10.3658" x2="152.172" y2="29.1456" gradientUnits="userSpaceOnUse">
<stop stop-color="#40B8FF"/>
<stop offset="0.00657445" stop-color="#40B9FF"/>
<stop offset="0.2601" stop-color="#40CEFF"/>
<stop offset="0.5122" stop-color="#40DDFF"/>
<stop offset="0.7604" stop-color="#40E7FF"/>
<stop offset="1" stop-color="#40EAFF"/>
</linearGradient>
<linearGradient id="paint11_linear_3022_476" x1="154.722" y1="0.817064" x2="166.094" y2="12.1891" gradientUnits="userSpaceOnUse">
<stop stop-color="#65B895"/>
<stop offset="0.0685" stop-color="#62BD95"/>
<stop offset="0.4762" stop-color="#50DB97"/>
<stop offset="0.8009" stop-color="#44ED98"/>
<stop offset="1" stop-color="#40F498"/>
</linearGradient>
<clipPath id="clip0_3022_476">
<rect width="134" height="45" fill="white" transform="translate(0 0.5)"/>
</clipPath>
<clipPath id="clip1_3022_476">
<rect width="152" height="45" fill="white" transform="translate(146 0.5)"/>
</clipPath>
<clipPath id="clip2_3022_476">
<rect width="45" height="45" fill="white" transform="translate(310 0.5)"/>
</clipPath>
</defs>
</svg>
