<svg width="289" height="62" viewBox="0 0 289 62" fill="none" xmlns="http://www.w3.org/2000/svg">
<g clip-path="url(#clip0_3022_340)">
<path d="M14.2893 41.1838C20.7911 41.1838 23.3273 37.2135 23.3273 30.4205C23.3273 23.629 20.3613 18.8935 14.4797 18.8935H7.88789V41.1838H14.2893ZM0.953125 12.9632H15.3408C24.4734 12.9632 30.355 20.3292 30.355 30.4205C30.355 35.9683 28.4895 40.8486 24.9033 43.8617C22.3686 45.965 19.0688 47.1615 14.7663 47.1615H0.953125V12.9632ZM50.161 34.9182C50.161 30.1339 47.9144 26.8814 43.9456 26.8814C39.928 26.8814 37.7272 30.1339 37.7272 34.9182C37.7272 39.7008 39.928 42.9045 43.9456 42.9045C47.9144 42.9045 50.161 39.7008 50.161 34.9182ZM31.1293 34.9182C31.1293 27.5993 36.3418 21.9554 43.9456 21.9554C51.548 21.9554 56.7605 27.5993 56.7605 34.9182C56.7605 42.2339 51.548 47.8793 43.9456 47.8793C36.3402 47.8793 31.1277 42.2355 31.1277 34.9182M57.835 34.9182C57.835 27.5993 62.6176 21.9554 70.0767 21.9554C76.4384 21.9554 80.3585 25.6393 81.2196 30.9478H74.8594C74.4296 28.7957 72.7561 27.168 70.3648 27.168C66.4432 27.168 64.4359 30.1827 64.4359 34.9182C64.4359 39.5576 66.2999 42.6668 70.2687 42.6668C72.8993 42.6668 74.7649 41.2799 75.1947 38.506H81.4589C81.0291 43.7185 76.9628 47.8793 70.4121 47.8793C62.6665 47.8793 57.835 42.2355 57.835 34.9182ZM98.3919 47.1629V44.293H98.2486C96.5751 46.5411 94.6624 47.8321 91.2194 47.8321C85.7676 47.8321 82.7071 44.3419 82.7071 38.983V22.6246H89.1618V37.8826C89.1618 40.7525 90.4543 42.3315 93.2266 42.3315C96.2871 42.3315 98.1526 40.0362 98.1526 36.7837V22.6246H104.656V47.1629H98.3919ZM136.341 47.1629H142.843V22.6246H136.341V47.1629ZM136.341 19.1953H142.843V13.114H136.341V19.1953ZM162.708 33.8162C162.708 30.2299 160.795 27.1695 156.874 27.1695C153.574 27.1695 151.375 29.7513 151.375 33.8649C151.375 38.0258 153.574 40.466 156.923 40.466C161.035 40.466 162.708 37.4527 162.708 33.8177M145.541 47.8793H151.994C152.521 49.4096 153.907 50.6059 156.92 50.6059C160.602 50.6059 162.372 48.8365 162.372 45.488V42.8086H162.228C160.792 44.4348 158.929 45.6785 155.819 45.6785C150.369 45.6785 145.013 41.3744 145.013 33.961C145.013 26.6421 149.412 21.9554 155.629 21.9554C158.689 21.9554 160.936 23.1504 162.419 25.208H162.515V22.6246H168.779V45.296C168.779 48.7404 167.678 51.083 165.862 52.7581C163.804 54.6708 160.649 55.5319 157.016 55.5319C150.321 55.5319 146.208 52.662 145.539 47.8793M177.93 25.9731H178.073C179.747 23.3425 181.995 21.9554 185.342 21.9554C190.411 21.9554 193.805 25.781 193.805 31.1383V47.1615H187.302V32.0955C187.302 29.4648 185.771 27.5993 183.046 27.5993C180.177 27.5993 178.073 29.8946 178.073 33.2431V47.1615H171.569V22.6246H177.93V25.9731ZM121.521 26.5462C116.451 25.4487 114.06 24.6349 114.06 21.8595C114.06 19.4209 116.498 17.8418 120.229 17.8418C123.633 17.8418 126.235 19.4392 126.768 22.6246H133.437C132.76 15.9839 127.832 12.3413 120.276 12.3413C112.675 12.3413 107.174 15.8331 107.174 22.5773C107.174 29.7041 112.769 31.3304 118.89 32.7173C124.102 33.9138 127.355 34.5828 127.355 37.9298C127.355 41.0879 124.246 42.3315 120.708 42.3315C115.831 42.3315 113.487 40.7052 113.008 36.5916H106.218C106.458 43.8144 111.718 47.9266 120.994 47.9266C128.694 47.9266 134.288 44.0537 134.288 37.1175C134.288 29.7513 128.55 28.0779 121.521 26.5462Z" fill="#050038"/>
</g>
<defs>
<clipPath id="clip0_3022_340">
<rect width="287.938" height="61.7009" fill="white" transform="translate(0.953125 0.000976562)"/>
</clipPath>
</defs>
</svg>
