<svg width="289" height="62" viewBox="0 0 289 62" fill="none" xmlns="http://www.w3.org/2000/svg">
<g clip-path="url(#clip0_3022_353)">
<path d="M288.844 0.000976562H0.90625V61.7019H288.844V0.000976562Z" fill="white"/>
<path d="M5.10882 16.9927V20.7345H0.90625V25.6137H5.10882V45.228C5.10882 46.7162 6.63128 47.9085 8.54565 47.9085C10.46 47.9085 12.0187 46.7252 12.0187 45.2371V25.6227H17.605V20.7436H12.0187V16.9927C12.0187 12.4794 15.5158 11.6469 20.3032 12.7234V7.84418C13.5622 6.32248 5.10882 7.02997 5.10882 16.9927ZM26.6342 25.6227H26.4895V20.7436H20.8971V45.2432C20.8971 46.7314 22.4045 47.9238 24.334 47.9238C26.2634 47.9238 27.7979 46.7314 27.7979 45.2432V32.908C27.7979 27.0895 31.5453 25.6106 36.0824 25.6106V20.1215C31.9793 20.1001 28.1356 21.4693 26.6342 25.6227ZM74.9307 20.1337C68.268 20.1337 62.8716 23.4728 62.8716 30.0353C62.8716 33.5301 64.4061 36.11 66.8511 37.7598C66.6702 37.8787 66.4953 38.0006 66.3235 38.1288C63.2937 40.3945 62.9681 44.3009 65.7446 46.4326C64.3851 47.6523 62.4585 49.8358 62.4585 52.8792C62.4585 57.7095 66.9204 60.8292 74.9276 60.8292C82.9348 60.8292 89.0488 57.0326 89.0488 51.1867C89.0488 45.3408 85.0331 43.0446 77.7072 43.0446H72.9167C69.5613 43.0446 69.8477 40.6995 70.9541 39.6901C71.0114 39.6383 71.0718 39.5894 71.1381 39.5376C72.385 39.8027 73.6565 39.9316 74.9307 39.9219C81.5963 39.9219 86.9897 36.5674 86.9897 30.0262C87.0047 28.6718 86.7409 27.3289 86.2148 26.0832C87.2353 25.8009 88.2864 25.6483 89.3442 25.6289V20.7497C86.3807 20.7497 84.4693 20.9509 82.4435 21.9481C80.3904 20.7253 77.7766 20.1184 74.9307 20.1184V20.1337ZM71.2677 47.9329H77.7012C80.3421 47.9329 82.142 48.7624 82.142 51.1867C82.142 54.4436 79.3804 55.944 74.9065 55.944C68.0389 55.9286 68.4489 50.22 71.2677 47.9176V47.9329ZM74.9307 35.0427C72.0817 35.0427 69.7664 33.9235 69.7664 30.0324C69.7664 26.1412 72.0817 25.022 74.9307 25.022C77.7796 25.022 80.0979 26.1381 80.0979 30.0324C80.0979 33.9265 77.7856 35.0427 74.9307 35.0427ZM48.6209 20.1184C41.1321 20.1184 36.5618 24.8055 36.5618 34.018C36.5618 43.2306 41.1382 47.9176 48.6209 47.9176C56.1035 47.9176 60.6799 43.2306 60.6799 34.018C60.6799 24.8055 56.1125 20.1184 48.6209 20.1184ZM48.6209 43.0293C45.7689 43.0293 43.4565 41.8583 43.4565 34.018C43.4565 26.1778 45.784 25.0129 48.6209 25.0129C51.4577 25.0129 53.7851 26.1808 53.7851 34.018C53.7851 41.8553 51.4728 43.0293 48.6209 43.0293Z" fill="#050038"/>
</g>
<defs>
<clipPath id="clip0_3022_353">
<rect width="287.938" height="61.7009" fill="white" transform="translate(0.90625 0.000976562)"/>
</clipPath>
</defs>
</svg>
