<svg width="216" height="26" viewBox="0 0 216 26" fill="none" xmlns="http://www.w3.org/2000/svg">
<g clip-path="url(#clip0_3022_447)">
<path d="M22 5.89418C21.2642 6.21575 20.4733 6.43232 19.6433 6.52994C20.4908 6.03035 21.1417 5.23872 21.4475 4.29532C20.655 4.758 19.7767 5.09434 18.8417 5.27564C18.0942 4.49057 17.0267 4 15.8467 4C13.1975 4 11.2508 6.43314 11.8492 8.95898C8.44 8.79081 5.41667 7.18294 3.3925 4.73913C2.3175 6.55455 2.835 8.92945 4.66167 10.1321C3.99 10.1107 3.35667 9.92945 2.80417 9.62674C2.75917 11.4979 4.12167 13.2486 6.095 13.6382C5.5175 13.7925 4.885 13.8285 4.24167 13.7071C4.76333 15.3117 6.27833 16.4791 8.075 16.5119C6.35 17.8433 4.17667 18.4381 2 18.1854C3.81583 19.3314 5.97333 20 8.29 20C15.9083 20 20.2125 13.6661 19.9525 7.98523C20.7542 7.41509 21.45 6.70386 22 5.89418Z" fill="white"/>
</g>
<g clip-path="url(#clip1_3022_447)">
<path fill-rule="evenodd" clip-rule="evenodd" d="M60.8962 21.9604C65.9992 21.5072 70 17.2208 70 12C70 6.47715 65.5228 2 60 2C54.4771 2 50 6.47715 50 12C50 16.8479 53.4497 20.89 58.0282 21.8057V14.588H55.625V11.6989H58.0282V9.56742C58.0282 7.09427 59.4801 5.75 61.6043 5.75C62.6199 5.75 63.4925 5.82427 63.75 5.86141V8.45338H62.2766C61.118 8.45338 60.8962 9.01783 60.8962 9.85706V11.6989H63.6499L63.2923 14.588H60.8962V21.9604Z" fill="white"/>
</g>
<g clip-path="url(#clip2_3022_447)">
<path d="M115 2H101C99 2 98 3 98 5L98.0006 19C98.0006 21 99.0002 22 101 22H115C117 22 118 21 118 19V5C118 3 117 2 115 2ZM104.667 17.8334H102.167V8.66667H104.667V17.8334ZM103.417 7.61C102.612 7.61 101.959 6.95167 101.959 6.14C101.959 5.32833 102.612 4.67 103.417 4.67C104.222 4.67 104.875 5.32833 104.875 6.14C104.875 6.95167 104.223 7.61 103.417 7.61ZM114.667 17.8334H112.167V13.1634C112.167 10.3567 108.833 10.5692 108.833 13.1634V17.8334H106.333V8.66667H108.833V10.1375C109.997 7.9825 114.667 7.82334 114.667 12.2009V17.8334Z" fill="white"/>
</g>
<g clip-path="url(#clip3_3022_447)">
<path d="M152.667 12C152.667 10.1591 154.159 8.6664 156 8.6664C157.841 8.6664 159.334 10.1591 159.334 12C159.334 13.8409 157.841 15.3336 156 15.3336C154.159 15.3336 152.667 13.8409 152.667 12ZM150.865 12C150.865 14.836 153.164 17.1349 156 17.1349C158.836 17.1349 161.135 14.836 161.135 12C161.135 9.16397 158.836 6.8651 156 6.8651C153.164 6.8651 150.865 9.16397 150.865 12ZM160.138 6.66155C160.138 7.32391 160.675 7.86187 161.338 7.86187C162.001 7.86187 162.539 7.32391 162.539 6.66155C162.539 5.99919 162.002 5.46204 161.338 5.46204C160.675 5.46204 160.138 5.99919 160.138 6.66155ZM151.96 20.1397C150.985 20.0953 150.455 19.933 150.103 19.7956C149.636 19.6139 149.303 19.3974 148.952 19.0477C148.603 18.6979 148.385 18.3651 148.204 17.8982C148.067 17.546 147.905 17.0162 147.86 16.0412C147.812 14.9871 147.802 14.6704 147.802 12C147.802 9.32956 147.813 9.01373 147.86 7.9588C147.905 6.98384 148.068 6.45477 148.204 6.10178C148.386 5.63489 148.603 5.3021 148.952 4.95153C149.302 4.60178 149.635 4.38449 150.103 4.20355C150.455 4.06624 150.985 3.90388 151.96 3.85945C153.014 3.81099 153.33 3.80129 156 3.80129C158.67 3.80129 158.986 3.81179 160.041 3.85945C161.016 3.90388 161.545 4.06704 161.898 4.20355C162.365 4.38449 162.698 4.60178 163.049 4.95153C163.398 5.30129 163.615 5.63489 163.796 6.10178C163.934 6.45396 164.096 6.98384 164.141 7.9588C164.189 9.01373 164.199 9.32956 164.199 12C164.199 14.6696 164.189 14.9863 164.141 16.0412C164.096 17.0162 163.933 17.546 163.796 17.8982C163.615 18.3651 163.398 18.6979 163.049 19.0477C162.699 19.3974 162.365 19.6139 161.898 19.7956C161.546 19.933 161.016 20.0953 160.041 20.1397C158.987 20.1882 158.67 20.1979 156 20.1979C153.33 20.1979 153.014 20.1882 151.96 20.1397ZM151.877 2.06058C150.813 2.10905 150.086 2.27787 149.45 2.52504C148.792 2.78029 148.235 3.12278 147.679 3.67851C147.123 4.23425 146.78 4.7916 146.525 5.44992C146.278 6.08562 146.109 6.8126 146.061 7.87722C146.011 8.94346 146 9.28433 146 12C146 14.7157 146.011 15.0565 146.061 16.1228C146.109 17.1874 146.278 17.9144 146.525 18.5501C146.78 19.2076 147.122 19.7658 147.679 20.3215C148.234 20.8772 148.792 21.2189 149.45 21.475C150.086 21.7221 150.813 21.891 151.877 21.9394C152.944 21.9879 153.284 22 156 22C158.717 22 159.057 21.9887 160.123 21.9394C161.187 21.891 161.914 21.7221 162.55 21.475C163.208 21.2189 163.765 20.8772 164.322 20.3215C164.877 19.7658 165.219 19.2076 165.475 18.5501C165.722 17.9144 165.892 17.1874 165.939 16.1228C165.988 15.0557 165.999 14.7157 165.999 12C165.999 9.28433 165.988 8.94346 165.939 7.87722C165.891 6.8126 165.722 6.08562 165.475 5.44992C165.219 4.79241 164.877 4.23506 164.322 3.67851C163.766 3.12278 163.208 2.78029 162.551 2.52504C161.914 2.27787 161.187 2.10824 160.124 2.06058C159.057 2.01212 158.717 2 156.001 2C153.284 2 152.944 2.01131 151.877 2.06058Z" fill="white"/>
</g>
<g clip-path="url(#clip4_3022_447)">
<path d="M214.999 9.70998C215.049 8.27864 214.736 6.858 214.089 5.57998C213.65 5.05558 213.042 4.70169 212.369 4.57998C209.587 4.32751 206.793 4.22403 203.999 4.26998C201.216 4.22194 198.432 4.32208 195.659 4.56998C195.111 4.6697 194.604 4.92683 194.199 5.30998C193.299 6.13998 193.199 7.55998 193.099 8.75998C192.954 10.9175 192.954 13.0824 193.099 15.24C193.128 15.9154 193.229 16.5858 193.399 17.24C193.52 17.745 193.764 18.2123 194.109 18.6C194.516 19.0034 195.035 19.2752 195.599 19.38C197.755 19.6461 199.927 19.7564 202.099 19.71C205.599 19.76 208.669 19.71 212.299 19.43C212.876 19.3316 213.41 19.0595 213.829 18.65C214.109 18.3699 214.318 18.0271 214.439 17.65C214.797 16.5526 214.972 15.4041 214.959 14.25C214.999 13.69 214.999 10.31 214.999 9.70998ZM201.739 14.85V8.65998L207.659 11.77C205.999 12.69 203.809 13.73 201.739 14.85Z" fill="white"/>
</g>
<defs>
<clipPath id="clip0_3022_447">
<rect width="24" height="24" fill="white"/>
</clipPath>
<clipPath id="clip1_3022_447">
<rect width="24" height="24" fill="white" transform="translate(48)"/>
</clipPath>
<clipPath id="clip2_3022_447">
<rect width="24" height="24" fill="white" transform="translate(96)"/>
</clipPath>
<clipPath id="clip3_3022_447">
<rect width="24" height="24" fill="white" transform="translate(144)"/>
</clipPath>
<clipPath id="clip4_3022_447">
<rect width="24" height="24" fill="white" transform="translate(192)"/>
</clipPath>
</defs>
</svg>
