<svg width="288" height="62" viewBox="0 0 288 62" fill="none" xmlns="http://www.w3.org/2000/svg">
<g clip-path="url(#clip0_3022_322)">
<path d="M287.938 0.000976562H0V61.7019H287.938V0.000976562Z" fill="white"/>
<path d="M0.431196 19.602C1.27465 17.9514 3.39616 17.1337 5.14323 17.7136C6.23599 18.0593 7.12241 18.9381 7.53984 19.9984C9.87245 25.5138 12.2155 31.0253 14.5472 36.5407C14.6112 36.4231 14.6724 36.3038 14.7258 36.1806C16.5178 31.9328 18.3241 27.6897 20.1247 23.4448C20.9873 21.4494 22.3818 19.603 24.3324 18.5722C25.4166 17.9934 26.6296 17.6762 27.8503 17.576C31.0092 17.2312 34.2216 18.7366 36.1942 21.1857C38.0272 19.6144 40.1429 18.278 42.5224 17.7394C43.809 17.4423 45.1453 17.4996 46.4464 17.6591C48.073 17.8702 49.6806 18.431 50.9884 19.4397C51.6475 19.9353 52.2148 20.5429 52.7277 21.1867C54.9868 19.0031 58.0378 17.5608 61.2081 17.5283C63.2284 17.4853 65.2706 18.0221 66.9709 19.1244C68.9281 20.37 70.3761 22.3874 70.9025 24.6503C71.1604 25.6943 71.1719 26.7765 71.169 27.8454C71.169 32.4304 71.1681 37.0154 71.1699 41.6004C71.1575 42.2108 71.1347 42.8297 70.9665 43.421C70.6723 44.553 69.9206 45.6036 68.8268 46.0736C67.287 46.7461 65.2572 46.494 64.1377 45.1681C63.236 44.1489 63.0086 42.7285 63.0478 41.4103C63.0498 37.1443 63.0478 32.8784 63.0487 28.6124C63.0478 27.5054 62.6409 26.3744 61.8251 25.6074C61.0792 24.8938 60.0389 24.5414 59.0159 24.5337C57.8792 24.5051 56.7033 24.8652 55.8666 25.6561C55.0623 26.4059 54.6306 27.513 54.6382 28.6057C54.6382 33.0007 54.6391 37.3946 54.6373 41.7895C54.6315 42.9282 54.3689 44.1126 53.6419 45.0162C53.0678 45.7565 52.1938 46.2408 51.2701 46.3735C50.2394 46.5235 49.1247 46.3726 48.2583 45.766C47.4779 45.2321 46.9612 44.3781 46.7186 43.4755C46.4702 42.6186 46.5113 41.7179 46.5103 40.8362C46.5103 36.7603 46.5094 32.6854 46.5113 28.6095C46.5017 27.5961 46.1684 26.5635 45.4816 25.8051C44.7117 24.9397 43.533 24.5213 42.3915 24.5328C41.2424 24.5241 40.0551 24.912 39.2413 25.7459C38.4618 26.5148 38.0845 27.6228 38.0864 28.7051C38.0864 33.1315 38.0854 37.559 38.0864 41.9854C38.0787 43.1029 37.7597 44.2549 37.0252 45.1174C36.4864 45.7613 35.7156 46.1958 34.8922 46.3459C33.7097 46.5646 32.3896 46.3631 31.4562 45.5617C30.4294 44.6895 29.9882 43.3026 29.9843 41.9883C29.9805 36.6028 29.9843 31.2183 29.9824 25.8337C29.9929 25.4125 29.7875 24.9875 29.4245 24.7649C28.8696 24.3924 27.9955 24.5719 27.73 25.2148C25.2045 30.7167 22.6751 36.2169 20.1534 41.7208C19.6041 42.866 19.0242 44.0256 18.1531 44.9656C17.5188 45.6514 16.6735 46.1443 15.7517 46.3153C14.3036 46.5923 12.6865 46.3936 11.5088 45.4479C10.265 44.4479 9.54769 42.975 8.89242 41.5574C6.03825 35.3409 3.17455 29.1292 0.325168 22.9118C-0.13142 21.8658 -0.117093 20.6117 0.431196 19.602Z" fill="#050038"/>
<path d="M166.767 18.4761C168.645 17.9651 170.637 17.9097 172.548 18.2631C174.67 18.6538 176.682 19.6482 178.255 21.1278C181.206 23.8673 182.594 27.9881 182.532 31.954C182.481 32.8768 181.644 33.6878 180.714 33.6696C174.232 33.6716 167.749 33.6687 161.266 33.6705C161.415 35.5485 162.025 37.4074 163.097 38.9633C164.156 40.5061 165.712 41.7019 167.481 42.3124C169.307 42.9628 171.315 42.9991 173.198 42.5846C174.992 42.1862 176.652 41.2769 178.029 40.0695C178.345 39.8001 178.636 39.4754 179.04 39.3359C179.741 39.0684 180.585 39.355 181.017 39.9596C181.489 40.5748 181.448 41.5233 180.912 42.0879C179.59 43.4289 178.042 44.5733 176.3 45.3069C174.529 46.0606 172.595 46.3671 170.677 46.3767C168.659 46.3834 166.629 45.9651 164.808 45.0882C161.648 43.6095 159.189 40.7783 158.066 37.4866C157.248 35.1721 157.049 32.6676 157.315 30.2366C157.699 26.8685 159.208 23.5836 161.727 21.2815C163.153 19.9652 164.892 18.9881 166.767 18.4761ZM166.774 22.126C165.135 22.849 163.783 24.1395 162.868 25.6698C161.946 27.177 161.442 28.9127 161.249 30.6607C161.716 30.6932 162.185 30.6702 162.654 30.6769C167.94 30.6789 173.228 30.6722 178.514 30.6798C178.523 30.2214 178.429 29.7704 178.358 29.3196C178.028 27.5019 177.333 25.7166 176.154 24.278C175.105 22.9818 173.616 22.0505 171.991 21.677C170.262 21.2863 168.4 21.3962 166.774 22.126Z" fill="#050038"/>
<path d="M74.387 18.1815C75.0556 17.9961 75.8389 18.1395 76.3374 18.6409C76.6278 18.9142 76.8341 19.2656 76.9679 19.6391C79.2795 26.3237 81.5844 33.0111 83.8864 39.6994C84.2169 38.9037 84.4568 38.0718 84.7577 37.2637C86.7874 31.3901 88.822 25.5194 90.8623 19.6496C91.0887 18.9686 91.5998 18.3248 92.3295 18.1653C93.045 18.0163 93.8693 18.0965 94.4367 18.5961C94.7959 18.9008 95.0184 19.3287 95.1722 19.7672C97.3463 26.0725 99.5117 32.3816 101.682 38.6888C101.81 39.0241 101.893 39.3776 102.054 39.7004C104.395 32.9605 106.745 26.2233 109.096 19.4882C109.275 19.0077 109.591 18.556 110.057 18.319C110.753 17.9638 111.651 18.0554 112.263 18.5407C112.832 18.9725 113.113 19.748 112.936 20.4425C112.806 20.9535 112.608 21.4436 112.433 21.9392C109.902 28.9868 107.351 36.0285 104.816 43.0751C104.615 43.611 104.443 44.1584 104.219 44.6856C103.916 45.3542 103.342 45.9464 102.606 46.1079C101.898 46.2464 101.094 46.1384 100.549 45.6313C99.953 45.1107 99.7725 44.3121 99.5165 43.5986C97.3634 37.3802 95.199 31.1656 93.0411 24.9491C93.0144 24.8956 92.96 24.7896 92.9332 24.7361C92.0793 27.0697 91.2884 29.4281 90.4554 31.7703C89.0351 35.8241 87.6166 39.879 86.2009 43.9357C86.0051 44.4974 85.8293 45.1001 85.388 45.5281C84.8044 46.1576 83.8368 46.2961 83.043 46.0477C82.2692 45.7994 81.7363 45.0934 81.4774 44.3503C78.7341 36.6896 75.9735 29.0355 73.2321 21.3738C73.0802 20.9325 72.8854 20.4873 72.9092 20.0117C72.9045 19.1578 73.576 18.3897 74.387 18.1815Z" fill="#050038"/>
<path d="M122.91 18.1995C125.085 18.0476 127.301 18.0343 129.432 18.5472C131.041 18.9303 132.595 19.639 133.838 20.7432C135.322 22.0203 136.268 23.8344 136.69 25.7294C137.166 27.7058 137.012 29.7489 137.038 31.7616C137.038 35.9024 137.036 40.0432 137.039 44.185C137.054 44.801 136.779 45.4258 136.286 45.8031C135.699 46.2596 134.857 46.3008 134.19 46.0046C133.561 45.7257 133.148 45.0571 133.141 44.3751C133.131 43.4915 133.155 42.6079 133.13 41.7243C132.143 42.9279 130.99 44.0112 129.628 44.7782C127.773 45.8509 125.622 46.3714 123.486 46.3772C121.325 46.4297 119.135 45.9416 117.243 44.8814C115.708 44.0159 114.395 42.6987 113.697 41.0653C112.974 39.4157 112.907 37.5368 113.266 35.7887C113.643 33.9833 114.72 32.348 116.209 31.2629C118.089 29.8769 120.421 29.2589 122.716 29.0373C126.216 28.7526 129.765 29.1281 133.136 30.1072C133.195 28.3276 133.041 26.4439 132.073 24.8984C131.293 23.6003 129.987 22.6804 128.557 22.2228C127.386 21.8408 126.148 21.6927 124.919 21.7166C123.247 21.6909 121.553 21.8666 119.969 22.4235C119.455 22.5916 118.97 22.8313 118.465 23.0166C117.786 23.2631 116.991 23.0195 116.531 22.4769C115.833 21.7061 116.003 20.279 116.963 19.7995C118.822 18.9017 120.85 18.3524 122.91 18.1995ZM121.692 32.3748C120.345 32.7436 119.016 33.4198 118.162 34.5575C117.29 35.6846 117.03 37.1948 117.252 38.5808C117.457 39.8684 118.232 41.0328 119.298 41.774C120.968 42.9671 123.11 43.2929 125.119 43.1132C127.187 42.9308 129.244 42.1895 130.822 40.8151C132.204 39.6277 133.118 37.8825 133.184 36.0504C133.194 35.0771 133.187 34.1037 133.186 33.1313C131.48 32.6175 129.723 32.2783 127.953 32.0959C125.869 31.9039 123.731 31.8255 121.692 32.3748Z" fill="#050038"/>
<path d="M141.985 20.1068C141.968 19.0561 142.874 18.0808 143.931 18.0589C145.025 17.9843 146.046 18.9157 146.069 20.0122C146.087 21.5797 146.069 23.1491 146.075 24.7176C146.414 24.1378 146.693 23.5236 147.087 22.9772C148.756 20.5539 151.369 18.7409 154.283 18.2164C155.03 18.1085 155.863 17.9671 156.549 18.3779C157.755 19.057 157.846 21.0181 156.733 21.8281C156.255 22.2207 155.622 22.2541 155.039 22.3448C152.961 22.7088 150.96 23.6573 149.471 25.1685C148.232 26.3835 147.358 27.9385 146.823 29.5824C146.247 31.36 146.041 33.2418 146.075 35.1055C146.075 38.0666 146.074 41.0278 146.075 43.9889C146.083 44.5534 145.876 45.1275 145.471 45.5268C144.977 46.0464 144.187 46.2413 143.503 46.0483C142.831 45.8869 142.274 45.3443 142.078 44.6852C141.948 44.3069 141.99 43.9029 141.986 43.5113C141.986 35.7101 141.987 27.9089 141.985 20.1068Z" fill="#050038"/>
</g>
<defs>
<clipPath id="clip0_3022_322">
<rect width="287.938" height="61.7009" fill="white" transform="translate(0 0.000976562)"/>
</clipPath>
</defs>
</svg>
